<svg id="visual" viewBox="0 0 900 600" width="900" height="600" xmlns="http://www.w3.org/2000/svg" xmlns:xlink="http://www.w3.org/1999/xlink" version="1.1"><rect x="0" y="0" width="900" height="600" fill="#d1cccc"></rect><path d="M0 401L21.5 408C43 415 86 429 128.8 434.7C171.7 440.3 214.3 437.7 257.2 431.3C300 425 343 415 385.8 405.8C428.7 396.7 471.3 388.3 514.2 404.2C557 420 600 460 642.8 483.3C685.7 506.7 728.3 513.3 771.2 515.3C814 517.3 857 514.7 878.5 513.3L900 512L900 601L878.5 601C857 601 814 601 771.2 601C728.3 601 685.7 601 642.8 601C600 601 557 601 514.2 601C471.3 601 428.7 601 385.8 601C343 601 300 601 257.2 601C214.3 601 171.7 601 128.8 601C86 601 43 601 21.5 601L0 601Z" fill="#33254f" stroke-linecap="round" stroke-linejoin="miter"></path></svg>